<svg xmlns="http://www.w3.org/2000/svg" xmlns:xlink="http://www.w3.org/1999/xlink" version="1.1" x="0px" y="0px" viewBox="0 0 90 112.5" enable-background="new 0 0 90 90" xml:space="preserve"><path d="M45.162,51.031L71.23,77.1c1.62,1.62,4.252,1.615,5.868,0c1.619-1.62,1.62-4.248-0.001-5.868L51.03,45.164l26.068-26.068  c1.619-1.62,1.619-4.249,0-5.868c-1.62-1.62-4.248-1.62-5.868,0L45.162,39.296L19.094,13.228c-1.62-1.62-4.248-1.62-5.867,0  c-0.81,0.81-1.21,1.868-1.209,2.932c-0.003,1.066,0.399,2.126,1.209,2.936l26.068,26.068L13.23,71.228  c-0.81,0.811-1.216,1.873-1.215,2.935c0.002,1.063,0.405,2.124,1.214,2.934c1.619,1.619,4.248,1.62,5.868,0L45.162,51.031z"/></svg>