<svg xmlns="http://www.w3.org/2000/svg" xmlns:xlink="http://www.w3.org/1999/xlink" version="1.1" x="0px" y="0px" viewBox="0 0 100 125" enable-background="new 0 0 100 100" xml:space="preserve"><g><path d="M72.893,8.039C62.76,8.039,55.309,14.912,51,20.052c-4.309-5.14-11.76-12.013-21.893-12.013   c-14.277,0-25.893,11.615-25.893,25.893c0,3.383,0.644,6.674,1.913,9.783c2.323,5.688,13.741,17.096,29.618,32.59   c5.792,5.653,10.795,10.535,13.265,13.314L51,92.981l2.99-3.363c2.47-2.779,7.473-7.661,13.265-13.314   C83.132,60.81,94.55,49.403,96.873,43.714c1.27-3.109,1.913-6.4,1.913-9.783C98.786,19.654,87.17,8.039,72.893,8.039z    M89.466,40.69c-1.874,4.589-17.475,19.814-27.799,29.889c-4.14,4.04-7.883,7.693-10.667,10.547   c-2.784-2.854-6.528-6.507-10.667-10.547c-10.324-10.075-25.925-25.3-27.799-29.889c-0.875-2.144-1.319-4.418-1.319-6.758   c0-9.866,8.026-17.893,17.893-17.893c6.419,0,12.342,4.105,18.638,12.92L51,33.516l3.255-4.557   c6.296-8.815,12.219-12.92,18.638-12.92c9.866,0,17.893,8.026,17.893,17.893C90.786,36.272,90.342,38.546,89.466,40.69z"/></g></svg>