<svg xmlns="http://www.w3.org/2000/svg" enable-background="new 0 0 100 100" viewBox="0 0 100 125" x="0px" y="0px"><path d="m50 84c-.4 0-.7-.1-1.1-.3-17.8-11.2-36.9-24.5-36.9-41.7 0-15.5 9.2-22.8 17-24.3 7.1-1.4 15.8 1.3 21 9.8 5.1-8.5 13.9-11.2 21-9.8 7.9 1.5 17 8.8 17 24.3 0 17.2-19.1 30.5-36.9 41.7-.4.2-.7.3-1.1.3zm-17.4-62.6c-1 0-1.9.1-2.8.3-10.2 1.9-13.8 12.1-13.8 20.3 0 14.8 17.4 27.2 34 37.6 16.6-10.4 34-22.8 34-37.6 0-8.2-3.6-18.4-13.8-20.4-6.4-1.2-14.6 1.7-18.3 11.1-.3.8-1 1.3-1.9 1.3s-1.6-.5-1.9-1.3c-3.2-8-9.6-11.3-15.5-11.3z"/></svg>