<svg xmlns:dc="http://purl.org/dc/elements/1.1/" xmlns:cc="http://creativecommons.org/ns#" xmlns:rdf="http://www.w3.org/1999/02/22-rdf-syntax-ns#" xmlns:svg="http://www.w3.org/2000/svg" xmlns="http://www.w3.org/2000/svg" xmlns:sodipodi="http://sodipodi.sourceforge.net/DTD/sodipodi-0.dtd" xmlns:inkscape="http://www.inkscape.org/namespaces/inkscape" version="1.1" x="0px" y="0px" viewBox="0 0 100 125" preserveAspectRatio="xMaxYMax meet"><g transform="translate(0,-952.36218)"><path style="text-indent:0;text-transform:none;direction:ltr;block-progression:tb;baseline-shift:baseline;color:#000000;enable-background:accumulate;" d="m 35.826933,978.35839 c -3.779843,0 -7.57213,1.38615 -10.46875,4.1875 -5.793243,5.60249 -5.786846,14.70521 0,20.31251 l 23.9375,23.2187 a 1.0001,1.0001 0 0 0 1.40625,0 c 7.986376,-7.7236 15.951098,-15.4635 23.9375,-23.1875 5.793238,-5.60245 5.79321,-14.70972 0,-20.31246 -5.793215,-5.60277 -15.112962,-5.60289 -20.90625,0 l -3.6875,3.5625 -3.75,-3.59375 c -2.896649,-2.80135 -6.688907,-4.1875 -10.46875,-4.1875 z m 0,1.96875 c 3.277447,0 6.551429,1.22779 9.0625,3.65625 l 4.4375,4.28125 a 1.0001,1.0001 0 0 0 1.40625,0 l 4.40625,-4.25 c 5.022132,-4.85707 13.102935,-4.85697 18.125,0 5.02207,4.85696 5.022042,12.58081 0,17.43746 -7.748194,7.4936 -15.501801,15.0068 -23.25,22.5001 l -23.25,-22.5313 c -5.018014,-4.86232 -5.022037,-12.58084 0,-17.43751 2.51104,-2.42846 5.785053,-3.65625 9.0625,-3.65625 z" fill="#000000" fill-opacity="1" stroke="none" marker="none" visibility="visible" display="inline" overflow="visible"/></g></svg>